# xmcd CD database file
#
# Track frame offsets:
#	187
#	11862
#	28957
#	41992
#	56312
#	70032
#	85682
#	103455
#	122837
#	138312
#	157062
#	172737
#
# Disc length: 2501 seconds
#
# Revision: 0
# Processed by: cddbd v1.5PL3 Copyright (c) Steve Scherf et al.
# Submitted via: CDex 1.51
#
DISCID=a409c30c
DTITLE=小泉今日子 - Celebration
DYEAR=1984
DGENRE=J-Pop
TTITLE0=Celebration
TTITLE1=私は16才
TTITLE2=素敵なラブリーボーイ
TTITLE3=ひとり街角
TTITLE4=春風の誘惑
TTITLE5=まっ赤な女の子
TTITLE6=半分少女
TTITLE7=艶姿ナミダ娘
TTITLE8=クライマックス御一緒に
TTITLE9=渚のはいから人魚
TTITLE10=迷宮のアンドローラ
TTITLE11=ヤマトナデシコ七変化
EXTD=YEAR: 1984
EXTT0=
EXTT1=
EXTT2=
EXTT3=
EXTT4=
EXTT5=
EXTT6=
EXTT7=
EXTT8=
EXTT9=
EXTT10=
EXTT11=
PLAYORDER=
